<?xml version="1.0" encoding="UTF-8"?>
<svg xmlns="http://www.w3.org/2000/svg" viewBox="0 0 68 68" width="128" height="128">
  <g transform="translate(8.5, 0)" fill="#208efb">
    <rect x="6.3" y="6.2" width="2.9" height="11.8"/>
    <path d="M16.9,18.2c2,0,3.4-.6,4.8-2.1v-.2c.1,0-1.8-1.9-1.8-1.9h-.2c-.9.9-1.6,1.4-2.8,1.4-1.8,0-3.1-1.4-3.1-3.4s1.3-3.4,3.1-3.4,1.8.4,2.8,1.2h.2c0,.1,1.8-1.8,1.8-1.8h-.1c-1.3-1.4-2.7-2-4.6-2-3.5,0-6.1,2.6-6.1,6.1h0c0,3.5,2.5,6.1,6,6.1Z"/>
    <path d="M40.9,18.2c2,0,3.4-.6,4.8-2.1v-.2c0,0-1.7-1.8-1.7-1.8h-.2c-.8.9-1.6,1.4-2.8,1.4-1.8,0-3.1-1.4-3.1-3.4s1.3-3.4,3.1-3.4,1.8.4,2.8,1.2h.2c0,.1,1.8-1.9,1.8-1.9h0c-1.3-1.4-2.7-2-4.7-2-3.5,0-6.1,2.6-6.1,6.1h0c0,3.5,2.6,6.1,6,6.1Z"/>
    <path d="M33.7,14.7c0-1.4-.6-2.3-1.9-2.9.9-.6,1.3-1.4,1.3-2.4s-.3-1.5-.8-2.1c-.7-.7-1.8-1.1-3.1-1.1h-5.5v11.8h5.6c2.8,0,4.4-1.2,4.4-3.3ZM26.3,8.7h2.4c1,0,1.6.4,1.6,1.1s-.6,1.2-1.7,1.2h-2.2v-2.3h0ZM26.3,13.2h2.8c1.2,0,1.8.4,1.8,1.2s-.9,1.2-1.7,1.2h-2.9v-2.4h0Z"/>
    <path d="M7.4,51h43.6c-31.7-21.4-5.7-26.3,0-26.2v-4.1C-2.1,23.2,6.1,47.8,7.4,51Z"/>
  </g>
</svg>